<?xml version="1.0" encoding="UTF-8"?> <svg xmlns="http://www.w3.org/2000/svg" xmlns:xlink="http://www.w3.org/1999/xlink" width="317px" height="31px" viewBox="0 0 317 31" version="1.1"><!-- Generator: Sketch 57.1 (83088) - https://sketch.com --><title>SmartVagabond</title><desc>Created with Sketch.</desc><g id="Page-1" stroke="none" stroke-width="1" fill="none" fill-rule="evenodd"><path d="M0.556504613,11.5667443 C0.634539328,11.1818053 0.686561691,10.8674433 0.712573263,10.6236486 C0.738584835,10.379854 0.647545699,10.1168163 0.439453125,9.83452779 C0.543499412,9.42392627 0.628035752,9.10314865 0.693064682,8.8721853 C0.758093611,8.64122195 0.764596407,8.32044433 0.712573263,7.90984281 C0.946677409,7.24261535 1.30433116,6.67804674 1.78554524,6.21612004 C2.26675931,5.75419334 2.79348574,5.36284464 3.36574032,5.04206221 C3.9379949,4.72127977 4.53625208,4.45182657 5.1605298,4.23369452 C5.78480752,4.01556246 6.37005911,3.82951144 6.91630212,3.67553588 C6.91630212,3.5728855 6.86427976,3.52156108 6.76023347,3.52156108 C6.65618718,3.52156108 6.630176,3.45740555 6.68219914,3.32909258 C8.08682402,3.07246663 9.49793062,2.70036459 10.9155613,2.2127753 C12.3331919,1.725186 13.7833153,1.28892843 15.2659749,0.903989516 C16.7486345,0.519050597 18.2702886,0.281675157 19.8309829,0.191856076 C21.3916773,0.102036995 23.0303817,0.30091912 24.7471454,0.788508417 C24.8511917,1.09645955 24.9942532,1.39157496 25.1763342,1.6738635 C25.3584152,1.95615205 25.5469963,2.2320208 25.7420831,2.50147804 C25.9371699,2.77093529 26.1127453,3.03397294 26.2688148,3.29059888 C26.4248842,3.54722483 26.5159233,3.81667803 26.5419349,4.09896657 C26.8540738,4.38125511 27.1076828,4.68278607 27.3027696,5.00356851 C27.4978564,5.32435094 27.5303703,5.75419295 27.4003125,6.29310744 C27.1141852,6.49840819 26.8150566,6.70370587 26.5029178,6.90900663 C26.1907789,7.11430739 25.8656391,7.30677396 25.5274887,7.48641212 C24.356968,7.20412358 23.1864648,7.10147474 22.015944,7.17846253 C20.8454233,7.25545031 19.7919705,7.34526804 18.8555539,7.44791842 C18.5694266,7.13996729 18.2312812,6.99240958 17.8411077,7.00524088 C17.4509341,7.01807218 17.041258,7.0822277 16.612067,7.19770938 C16.1828761,7.31319105 15.7601944,7.42867099 15.3440092,7.54415267 C14.9278241,7.65963435 14.5376564,7.69171211 14.1734944,7.64038692 C13.8873671,7.89701286 13.5102049,8.07023278 13.0419966,8.16005186 C12.5737884,8.24987094 12.0795759,8.32044202 11.5593445,8.37176721 C11.5333329,8.50008018 11.5593441,8.58989792 11.6373788,8.6412231 C11.7154135,8.69254829 11.7284191,8.79519713 11.676396,8.9491727 C11.858477,9.18013605 12.1055832,9.34052486 12.417722,9.43034394 C12.7298609,9.52016302 13.0484979,9.60356521 13.3736425,9.68055299 C13.6987872,9.75754077 13.991413,9.86660516 14.2515287,10.0077494 C14.5116444,10.1488937 14.6807171,10.373438 14.7587518,10.6813892 C15.2269601,10.7070518 15.6301334,10.8289473 15.9682838,11.0470793 C16.3064343,11.2652114 16.5925573,11.528249 16.8266614,11.8362002 C17.0607656,12.1441513 17.2298382,12.4713445 17.3338845,12.8177895 C17.4379308,13.1642345 17.4769476,13.4785966 17.450936,13.7608851 C17.5549823,14.0175111 17.6655298,14.1201599 17.7825819,14.0688347 C17.899634,14.0175095 18.0361927,14.0816651 18.1922621,14.2613032 C18.2963084,14.6462421 18.5369118,15.0504219 18.9140796,15.4738548 C19.2912474,15.8972876 19.5838732,16.3527918 19.7919658,16.8403811 C19.8439889,17.6102589 19.8895085,18.3031386 19.9285259,18.9190409 C19.9675432,19.5349431 19.8569957,20.1380051 19.59688,20.7282447 C19.1546832,21.8573989 18.5174093,22.8710562 17.685039,23.769247 C16.8526687,24.6674378 15.9097634,25.4565507 14.8562947,26.1366095 C13.8028261,26.8166683 12.690848,27.4068991 11.5203273,27.9073197 C10.3498066,28.4077403 9.19230899,28.8247512 8.04779983,29.1583649 C7.94375355,29.1327023 7.82020043,29.1327023 7.67713679,29.1583649 C7.53407314,29.1840275 7.50155917,29.1070409 7.57959388,28.9274027 C7.34548974,29.1327035 7.07887513,29.2610145 6.77974205,29.3123397 C6.48060897,29.3636649 6.1554692,29.3829116 5.80431298,29.3700803 C5.45315676,29.357249 5.10200581,29.3380023 4.75084959,29.3123397 C4.39969337,29.2866771 4.05504522,29.2995082 3.71689478,29.3508334 C3.50880221,29.1455326 3.32022114,28.940235 3.15114593,28.7349342 C2.98207071,28.5296335 2.84551201,28.2858425 2.74146572,28.0035539 C2.61140786,27.9778913 2.5528827,27.8944891 2.56588849,27.7533449 C2.57889427,27.6122006 2.52036911,27.5416295 2.39031126,27.5416295 C2.39031126,27.4389792 2.40331685,27.3619925 2.42932842,27.3106673 L2.50736274,27.1566925 C2.61140903,27.0797048 2.6569286,27.0219648 2.64392281,26.9834709 C2.63091703,26.944977 2.59190025,26.9064837 2.52687132,26.8679898 C2.4618424,26.8294959 2.39681444,26.784587 2.33178551,26.7332618 C2.26675658,26.6819367 2.2472482,26.6177811 2.27325977,26.5407933 C2.40331763,26.30983 2.44883719,26.0339612 2.40981984,25.7131788 C2.37080248,25.3923964 2.3382885,25.0652032 2.31227693,24.7315895 C2.28626536,24.3979757 2.31227654,24.0836137 2.39031126,23.7884938 C2.46834597,23.493374 2.68944101,23.2431675 3.05360302,23.0378667 C4.12007746,23.1405171 5.12801075,23.0891927 6.07743312,22.8838919 C7.02685549,22.6785911 7.92424126,22.3963068 8.76961734,22.0370305 C9.61499343,21.6777542 10.4213401,21.2864055 11.1886814,20.8629727 C11.9560228,20.4395399 12.7038443,20.0481912 13.4321683,19.6889148 C13.510203,19.4322889 13.6337561,19.2141601 13.8028313,19.034522 C13.9719065,18.8548838 14.147482,18.6816639 14.329563,18.514857 C14.511644,18.3480501 14.6807167,18.1684147 14.8367861,17.9759452 C14.9928556,17.7834758 15.1099059,17.5461003 15.1879406,17.2638118 C15.2139522,17.1611614 15.2139522,17.0841748 15.1879406,17.0328496 C15.161929,16.9815244 15.1229122,16.9366155 15.0708891,16.8981216 C15.018866,16.8596277 14.9668436,16.8147189 14.9148205,16.7633937 C14.8627973,16.7120685 14.8367861,16.6350819 14.8367861,16.5324315 C14.7587514,16.5067689 14.6872207,16.4811067 14.6221917,16.4554441 C14.5571628,16.4297815 14.4986376,16.4169504 14.4466145,16.4169504 C13.7703136,16.0833367 13.0550061,15.8010524 12.3006706,15.570089 C11.546335,15.3391257 10.909061,15.0825036 10.3888296,14.800215 C10.0766907,15.0055158 9.76455655,15.0568402 9.45241769,14.9541898 C9.14027883,14.8515394 8.76311669,14.7488906 8.32091997,14.6462402 C7.22843396,14.594915 6.19448949,14.4922662 5.21905555,14.3382906 C4.2436216,14.1843151 3.30071627,13.9148619 2.39031126,13.5299229 C2.33828811,13.3759474 2.27326016,13.2412208 2.19522544,13.1257391 C2.11719073,13.0102574 1.93511246,12.9781797 1.64898517,13.0295048 C1.46690416,12.7728789 1.2783231,12.5355035 1.08323631,12.3173714 C0.88814952,12.0992393 0.712574044,11.8490328 0.556504613,11.5667443 Z M49.6791123,28.2345161 C49.4189966,28.3628291 49.1783932,28.478309 48.9572948,28.5809594 C48.7361965,28.6836098 48.4825875,28.7349342 48.1964602,28.7349342 C47.1820089,27.990719 46.6552824,26.6947774 46.6162651,24.8470706 C46.5772477,22.9993638 46.9739182,20.6512716 47.8062885,17.8027236 C47.9363464,17.7257358 48.0013743,17.5717625 48.0013743,17.3407992 L47.6502199,16.9558622 C47.5461736,16.9558622 47.4486317,16.9686933 47.3575912,16.9943559 C47.2665507,17.0200185 47.1950199,17.1098362 47.1429968,17.2638118 C46.4666959,17.7514011 45.7253772,18.2582297 44.9190185,18.7843129 C44.1126598,19.3103961 43.2737992,19.7979781 42.4024115,20.2470735 C41.5310239,20.6961689 40.6466437,21.0618554 39.7492445,21.3441439 C38.8518452,21.6264325 37.9739679,21.7675746 37.115586,21.7675746 C34.9306139,21.7675746 33.2919095,20.6769307 32.1994235,18.4956102 L31.8872862,17.9182047 L31.5751489,18.4186228 C31.4971142,18.5212731 31.3800639,18.7329864 31.2239944,19.0537688 C31.067925,19.3745512 30.9118579,19.7402377 30.7557885,20.1508392 C30.599719,20.5614408 30.4631603,20.9784517 30.3461083,21.4018845 C30.2290562,21.8253173 30.1835366,22.1910038 30.2095482,22.4989549 C29.9754441,22.7299183 29.7283378,22.9993715 29.4682221,23.3073226 C29.2081064,23.6152737 29.0130225,23.9617136 28.8829647,24.3466525 C28.8309415,24.5519532 28.8569527,24.7444198 28.960999,24.924058 C28.9089759,25.1550213 28.7919255,25.3346568 28.6098445,25.4629698 C28.5057982,25.5912827 28.3952507,25.7131782 28.2781986,25.8286599 C28.1611466,25.9441416 28.0636046,26.0660371 27.9855699,26.1943501 C27.9335468,26.322663 27.9010328,26.4509741 27.888027,26.579287 C27.8750212,26.7076 27.8555129,26.8359111 27.8295013,26.964224 C27.8295013,27.1438622 27.8034901,27.3106666 27.751467,27.4646421 C27.3092702,28.3628329 26.9581193,28.9466482 26.6980036,29.2161055 C26.4378878,29.4855627 26.0867369,29.6202893 25.6445402,29.6202893 C25.4364476,29.6202893 25.0983022,29.581796 24.6300939,29.5048082 C24.2919435,29.1455319 23.9863121,28.6515343 23.7131906,28.0228008 C23.4400691,27.3940672 23.2319797,26.7204342 23.088916,26.0018816 C22.9458524,25.2833289 22.8808244,24.5583715 22.8938302,23.8269875 C22.906836,23.0956036 23.0303891,22.4604639 23.2644933,21.9215494 C23.2644933,21.8958868 23.368538,21.6392647 23.5766306,21.1516754 C23.7847231,20.6640861 24.0513377,20.035362 24.3764824,19.2654842 C24.701627,18.4956063 25.0722864,17.6423378 25.4884715,16.7056531 C25.9046567,15.7689684 26.3208356,14.85796 26.7370207,13.9726005 C27.1532059,13.087241 27.5498764,12.2724658 27.9270442,11.5282506 C28.304212,10.7840353 28.622849,10.2194667 28.8829647,9.83452779 C29.0910572,9.52657665 29.2796383,9.23787679 29.4487135,8.96841955 C29.6177887,8.69896231 29.7803586,8.43592466 29.9364281,8.17929871 C30.4046364,7.38375828 30.8533292,6.72295638 31.2825202,6.19687319 C31.7117111,5.67079 32.3424823,5.25377909 33.1748526,4.94582796 C33.7471071,5.17679131 34.163286,5.44624451 34.4234018,5.75419565 L34.5014361,6.17762634 C34.6054824,6.43425229 34.7615495,6.56256333 34.969642,6.56256333 C35.2557693,6.63955112 35.4963728,6.71012219 35.6914595,6.77427868 C35.8865463,6.83843517 36.1011386,6.89617514 36.3352427,6.94750033 C36.5173237,7.15280109 36.6863964,7.39659208 36.8424658,7.67888062 C37.0505584,7.98683175 37.2521451,8.28836272 37.4472319,8.58348256 C37.6423187,8.87860239 37.7983857,9.1737178 37.9154378,9.46883764 C38.0324899,9.76395748 38.0975178,10.0654884 38.1105236,10.3734396 C38.1235294,10.6813907 38.0650043,11.0021683 37.9349464,11.3357821 L37.9739636,11.7207191 C38.1040214,11.9516824 38.1300326,12.27246 38.0519979,12.6830615 C38.0259863,12.8626997 38.0129807,13.0487507 38.0129807,13.2412202 C38.0129807,13.4336896 38.0389919,13.6454029 38.091015,13.8763662 C38.5592233,14.2356426 38.9754022,14.415278 39.3395642,14.415278 C39.7557494,14.415278 40.1394143,14.3190447 40.4905705,14.1265753 C40.8417268,13.9341058 41.1733693,13.7352237 41.4855082,13.5299229 C41.6936008,13.3759474 41.9016902,13.2412208 42.1097828,13.1257391 C42.3178754,13.0102574 42.5259648,12.9396863 42.7340574,12.9140237 C43.2022657,12.4777596 43.6249474,12.0928265 44.0021152,11.7592128 C44.379283,11.425599 44.7759535,11.0919903 45.1921386,10.7583766 C45.9724858,10.1424743 46.7268101,9.47525685 47.4551341,8.7567042 C48.1834581,8.03815155 48.7687097,7.13997421 49.2109064,6.06214524 C49.4710221,5.90816967 49.7441395,5.83118304 50.0302668,5.83118304 C50.3163941,5.83118304 50.6155227,5.89533857 50.9276615,6.02365154 C51.2398004,6.15196452 51.538929,6.28027556 51.8250563,6.40858854 C51.903091,6.45991373 51.9746218,6.49840704 52.0396507,6.52406963 C52.1046796,6.54973223 52.1632048,6.57539444 52.2152279,6.60105703 C52.2152279,6.85768298 52.3192726,7.07581176 52.5273652,7.25544992 C52.6314115,7.33243771 52.6964395,7.38376213 52.722451,7.40942472 C52.7484626,7.43508732 52.7874794,7.46074953 52.8395025,7.48641212 C53.2296761,7.69171288 53.4767823,7.89701056 53.5808286,8.10231131 C53.7629096,8.69255099 54.0880494,9.14163966 54.5562577,9.44959079 C54.5042345,9.70621674 54.5107373,9.94359218 54.5757663,10.1617242 C54.6407952,10.3798563 54.7253315,10.6044006 54.8293778,10.835364 L54.9074121,11.0663262 C54.9334237,11.143314 54.9724405,11.2331317 55.0244636,11.3357821 L54.2831375,11.2587947 L54.400189,11.990175 C54.4522122,12.3494513 54.4196982,12.7472155 54.3026461,13.1834796 C54.185594,13.6197437 54.0490353,13.9661836 53.8929659,14.2228095 C53.9189775,14.890037 53.9384859,15.4096967 53.9514916,15.7818044 C53.9644974,16.153912 53.944989,16.5003518 53.8929659,16.8211342 C53.8409428,17.1419167 53.769412,17.4434476 53.6783715,17.7257362 C53.587331,18.0080247 53.4637779,18.3159712 53.3077085,18.649585 C53.4117548,20.291991 53.2231737,21.7868147 52.7419596,23.1341009 C52.2607455,24.4813872 51.7600303,25.745251 51.2397988,26.9257303 C51.1877757,27.0540433 51.1292505,27.1823544 51.0642216,27.3106673 C50.9991927,27.4389803 50.9406675,27.5672914 50.8886444,27.6956043 C50.6545402,27.7725921 50.4464508,27.8559943 50.2643698,27.9458134 L49.6791123,28.2345161 Z M75.8596285,25.693932 C75.703559,26.1301961 75.4759612,26.5728692 75.1768281,27.0219646 C74.877695,27.47106 74.5265441,27.8688242 74.1233647,28.2152693 C73.7201854,28.5617143 73.2714925,28.8504142 72.7772726,29.0813775 C72.2830527,29.3123409 71.7628291,29.4406519 71.2165861,29.4663145 C70.8784357,29.3893267 70.6508378,29.3059245 70.5337858,29.2161055 C70.4167337,29.1262864 70.2931806,29.0428842 70.1631227,28.9658964 C70.085088,28.9145712 70.0135572,28.8696624 69.9485283,28.8311685 C69.8834994,28.7926746 69.8249742,28.7605968 69.7729511,28.7349342 L69.3047451,28.5424657 L69.4608138,28.0420476 C69.5128369,27.8367469 69.4998313,27.6763581 69.4217966,27.5608764 C69.3437619,27.4453947 69.1876948,27.2850059 68.9535907,27.0797051 L68.7194877,26.8487429 C68.641453,26.7717552 68.576425,26.6947685 68.5244019,26.6177807 L67.8611101,25.8864005 L68.9145735,25.6169446 C69.5648628,25.4373064 70.0005501,25.2063465 70.2216485,24.924058 C70.4427468,24.6417694 70.5272832,24.1670186 70.47526,23.4997911 C69.9550286,23.3971407 69.5193413,23.3843096 69.1681851,23.4612974 C68.8170288,23.5382852 68.4593751,23.6281029 68.0952131,23.7307533 C67.6270048,23.8590663 67.1523007,23.9681307 66.6710867,24.0579497 C66.1898726,24.1477688 65.6631462,24.1926777 65.0908916,24.1926777 C64.882799,24.1926777 64.6877151,24.1862621 64.5056341,24.1734308 C64.3235531,24.1605995 64.1284693,24.1413529 63.9203767,24.1156903 L63.5302051,24.0387029 C63.4781819,23.7564143 63.4261596,23.5960255 63.3741364,23.5575316 C63.3221133,23.5190377 63.2700909,23.4741289 63.2180678,23.4228037 C63.0880099,23.2944907 62.9514512,23.1212708 62.8083876,22.9031387 C62.6653239,22.6850067 62.6328099,22.4091379 62.7108447,22.0755242 C62.5807868,21.8445609 62.5027533,21.613601 62.4767417,21.3826376 C62.3206722,21.6905888 62.2036219,22.0113664 62.1255872,22.3449801 L61.9695186,22.7299171 L61.5793469,22.8069045 C61.5273238,22.8325671 61.488307,22.8903071 61.4622955,22.9801261 C61.4362839,23.0699452 61.4232783,23.1405163 61.4232783,23.1918415 L61.2281925,23.8462344 C61.1761693,23.8975596 61.124147,23.9424684 61.0721238,23.9809623 C61.0201007,24.0194562 60.9680783,24.0643651 60.9160552,24.1156903 C60.864032,24.3466536 60.7990041,24.5776135 60.7209694,24.8085769 C60.6429346,25.0395402 60.5649011,25.257669 60.4868664,25.4629698 C60.3568085,25.7965835 60.246261,26.1237767 60.1552205,26.4445591 C60.06418,26.7653415 60.031666,27.0797036 60.0576776,27.3876547 L59.9016089,27.8110854 C59.7715511,27.965061 59.6284896,28.0869565 59.4724202,28.1767756 C59.3163507,28.2665947 59.1602836,28.3499968 59.0042142,28.4269846 C58.9521911,28.4783098 58.8806603,28.5232187 58.7896198,28.5617126 C58.6985793,28.6002065 58.6270486,28.6322842 58.5750254,28.6579468 L58.4579739,29.0813775 L57.989768,29.1583649 C57.7036407,29.2096901 57.502054,29.2481834 57.385002,29.273846 C57.2679499,29.2995086 57.1313912,29.3123397 56.9753218,29.3123397 L56.5851501,29.273846 C56.2990228,29.0428827 56.0779278,28.8568316 55.9218584,28.7156874 C55.7657889,28.5745431 55.5837107,28.4398165 55.3756181,28.3115035 C55.1415139,28.0035524 55.011458,27.7725925 54.9854465,27.6186169 C54.9594349,27.4646414 54.9334237,27.3234992 54.9074121,27.1951862 C54.855389,27.0412107 54.822875,26.9128996 54.8098692,26.8102492 C54.7968634,26.7075989 54.7643495,26.6306122 54.7123263,26.579287 L54.2051032,26.1173627 L54.634292,25.7709194 L54.6733092,25.1165265 C55.1935406,23.8077341 55.7462782,22.5502859 56.3315386,21.3441439 C56.9167989,20.138002 57.5215589,18.9062159 58.1458366,17.6487488 C58.3539292,17.2381473 58.5555159,16.8275519 58.7506026,16.4169504 C58.9456894,16.0063489 59.1472761,15.5957535 59.3553687,15.185152 C59.3293571,15.1081642 59.3163515,15.0183465 59.3163515,14.9156961 C59.3163515,14.8130457 59.3423627,14.6975658 59.3943858,14.5692528 C59.6805131,14.1329887 59.9146138,13.74164 60.0966948,13.395195 C60.2787758,13.04875 60.460854,12.6958946 60.642935,12.3366183 C60.8510276,11.9003541 61.0656199,11.4769277 61.2867182,11.0663262 C61.5078166,10.6557247 61.7874368,10.2322982 62.1255872,9.79603409 L62.7498618,9.52657819 C62.8278965,9.5009156 62.9189357,9.46883783 63.022982,9.43034394 C63.1270282,9.39185005 63.2440786,9.37260339 63.3741364,9.37260339 L63.9593939,9.44959079 C64.6877179,9.11597706 65.3249918,8.64764174 65.8712348,8.04457076 C66.4174778,7.44149979 66.9767182,6.71654237 67.5489728,5.86967674 L67.9391444,5.33076495 L68.4463676,5.63871455 C68.5764254,5.71570233 68.7585037,5.78627341 68.9926078,5.85042989 C69.226712,5.91458638 69.4738182,5.98515746 69.7339339,6.06214524 C70.2021422,6.16479562 70.6443323,6.28027556 71.0605175,6.40858854 C71.4767026,6.53690151 71.814848,6.72936808 72.0749637,6.98599403 C72.2310331,7.39659554 72.3220722,7.70454206 72.3480838,7.90984281 C72.3740954,8.11514357 72.4131122,8.32044125 72.4651353,8.52574201 C72.54317,8.96200611 72.6147008,9.39826368 72.6797297,9.83452779 C72.7447586,10.2707919 72.7902782,10.7583739 72.8162898,11.2972884 C72.9463476,11.7335525 73.0568952,12.1633945 73.1479357,12.5868273 C73.2389762,13.0102601 73.3235125,13.4401021 73.4015472,13.8763662 C73.5316051,14.4922685 73.661661,15.0889149 73.7917188,15.6663233 C73.9217767,16.2437316 74.0908494,16.7890536 74.298942,17.3023055 C74.5070345,17.3023055 74.6370904,17.3151366 74.6891136,17.3407992 C74.8191714,17.289474 74.9557301,17.2509807 75.0987938,17.2253181 C75.2418574,17.1996555 75.4044273,17.1739933 75.5865083,17.1483307 L76.0156971,17.109837 L76.1717658,17.494774 C76.1977773,17.6230869 76.3278332,17.751398 76.5619374,17.879711 C76.9000878,17.9053736 77.147194,17.9759446 77.3032635,18.0914263 C77.4593329,18.206908 77.6023944,18.3288035 77.7324523,18.4571165 C77.8364985,18.5597668 77.9405433,18.6367535 78.0445896,18.6880787 L78.629847,18.9190409 L78.3177097,19.4964463 C78.057594,19.9583731 77.6869346,20.4010462 77.2057206,20.824479 C76.7245065,21.2479118 76.1847745,21.6007672 75.5865083,21.8830557 C75.6125199,22.0370313 75.6320283,22.184589 75.6450341,22.3257333 C75.6580398,22.4668775 75.6905538,22.6144352 75.742577,22.7684108 C75.8206117,23.2046749 75.8856396,23.6537636 75.9376628,24.1156903 C75.9896859,24.577617 75.9896859,25.0523679 75.9376628,25.5399572 L75.8596285,25.693932 Z M64.5836685,19.034522 C65.3640156,18.9831968 66.0728203,18.9254568 66.7101038,18.8613003 C67.3473873,18.7971438 68.056192,18.6880794 68.8365392,18.5341039 C68.6544582,17.764226 68.4593743,16.962282 68.2512817,16.1282476 C68.0431892,15.2942133 67.8220941,14.4666071 67.58799,13.645404 L67.353887,14.030341 C66.8336556,14.5692555 66.3329403,15.1723174 65.8517262,15.8395449 C65.3705122,16.5067724 64.9608361,17.1354965 64.6226856,17.7257362 L64.1544797,18.4186228 C63.9984102,18.6495861 63.8553487,18.880546 63.7252909,19.1115094 C63.8813603,19.0858468 64.0309246,19.0730157 64.1739883,19.0730157 C64.3170519,19.0730157 64.4536106,19.0601845 64.5836685,19.034522 Z M84.7165244,24.924058 C84.4303971,25.9505618 84.1767881,26.7268436 83.9556897,27.2529268 C83.7345913,27.77901 83.4029488,28.3243319 82.9607521,28.888909 C82.6226016,28.8375838 82.388501,28.8760771 82.2584431,29.0043901 C82.1283853,29.1327031 81.9853238,29.248183 81.8292543,29.3508334 C81.5951502,29.4021586 81.4260775,29.4021586 81.3220312,29.3508334 C81.2179849,29.2995082 81.1269458,29.2417682 81.0489111,29.1776118 C80.9708764,29.1134553 80.8733344,29.0492997 80.7562824,28.9851433 C80.6392303,28.9209868 80.4636548,28.888909 80.2295507,28.888909 C80.1775275,28.6836083 80.1190024,28.4911417 80.0539734,28.3115035 C79.9889445,28.1318654 79.813369,28.0677098 79.5272417,28.119035 C79.5792649,27.9137343 79.5922705,27.7405144 79.5662589,27.5993701 C79.5402473,27.4582258 79.5077334,27.3299148 79.468716,27.2144331 C79.4296986,27.0989514 79.3971847,26.9834715 79.3711731,26.8679898 C79.3451615,26.7525081 79.3581671,26.6049504 79.4101903,26.4253122 C79.2801324,26.4253122 79.1760877,26.3354945 79.098053,26.1558564 C79.0200182,25.9762182 78.9289791,25.7965827 78.8249328,25.6169446 C78.9029675,25.1550179 78.9810011,24.7187603 79.0590358,24.3081588 C79.1370705,23.8975573 79.2346124,23.5126241 79.3516645,23.1533478 C79.4687166,22.7940715 79.5662585,22.4348005 79.6442932,22.0755242 C79.7223279,21.7162479 79.6833112,21.3441458 79.5272417,20.9592069 C79.631288,21.0361947 79.7093216,21.0169481 79.7613447,20.9014664 C79.8133679,20.7859847 79.8523846,20.6320114 79.8783962,20.439542 C79.9044078,20.2470725 79.9174134,20.054606 79.9174134,19.8621365 C79.9174134,19.669667 79.9044078,19.5092782 79.8783962,19.3809652 C80.1385119,18.7137378 80.3531042,18.0272737 80.5221794,17.3215523 C80.6912546,16.615831 80.8473217,15.9165358 80.9903853,15.2236457 C81.133449,14.5307557 81.2830133,13.8507071 81.4390827,13.1834796 C81.5951521,12.5162522 81.8032416,11.9003591 82.0633573,11.3357821 C82.3494846,11.2844569 82.6681216,11.3165346 83.0192778,11.4320163 C83.370434,11.547498 83.5850263,11.6950557 83.663061,11.8746939 C84.3393618,11.361442 84.937619,10.7391334 85.4578505,10.0077494 C85.9780819,9.27636549 86.5113111,8.56423917 87.0575541,7.87134912 C87.6037971,7.17845906 88.2085571,6.56256603 88.8718522,6.02365154 C89.5351473,5.48473706 90.3740079,5.16395943 91.3884592,5.06130906 C91.9086906,5.44624797 92.4874394,5.83759667 93.1247229,6.23536689 C93.7620064,6.63313711 94.2887328,7.15279685 94.704918,7.79436172 C94.9130106,7.89701209 95.088586,8.00607649 95.2316497,8.12155816 C95.3747133,8.23703984 95.5502888,8.35893533 95.7583814,8.48724831 L95.7583814,8.9491727 C96.0705202,9.23146124 96.3241293,9.55865441 96.5192161,9.93076204 C96.7143028,10.3028697 96.8898783,10.7006339 97.0459478,11.1240667 L97.5141537,12.3943588 C97.6702231,12.8177916 97.8523014,13.2219714 98.060394,13.6069103 C98.0083708,13.7352233 97.9823597,13.8442877 97.9823597,13.9341068 C97.9823597,14.0239259 98.001868,14.1201591 98.0408854,14.2228095 C98.0799028,14.3254599 98.1124167,14.4281087 98.1384283,14.5307591 C98.1644399,14.6334095 98.1644399,14.7745517 98.1384283,14.9541898 C98.0603936,16.083344 97.6897343,16.9943524 97.0264392,17.6872425 C96.3631441,18.3801325 95.5633003,18.9511167 94.6268837,19.4002121 C93.6904671,19.8493075 92.6890366,20.2278251 91.6225622,20.5357762 C90.5560877,20.8437274 89.593674,21.1773361 88.7352921,21.5366124 C88.7352921,21.6392628 88.7808117,21.6905872 88.8718522,21.6905872 C88.9628927,21.6905872 88.9954067,21.7547427 88.9693951,21.8830557 C89.5936728,22.2679946 90.0878853,22.5759411 90.4520473,22.8069045 C90.8162093,23.0378679 91.1608574,23.2303344 91.4860021,23.38431 C91.8111467,23.5382856 92.1622977,23.6730122 92.5394655,23.7884938 C92.9166333,23.9039755 93.4433597,24.0387021 94.1196606,24.1926777 C94.7959614,24.3466532 95.3226879,24.4685487 95.6998556,24.5583678 C96.0770234,24.6481869 96.4216716,24.7251735 96.7338105,24.78933 C97.0459493,24.8534865 97.3645863,24.9048109 97.6897309,24.9433048 C98.0148756,24.9817987 98.4765741,25.0267076 99.0748402,25.0780328 C99.3089444,25.3089961 99.510531,25.5848649 99.6796062,25.9056473 C99.8486814,26.2264297 99.959229,26.5472074 100.011252,26.8679898 C100.063275,27.1887722 100.076281,27.4967187 100.050269,27.7918386 C100.024258,28.0869584 99.9332186,28.3243339 99.7771491,28.503972 C99.8031607,28.5809598 99.8616859,28.6130376 99.9527264,28.6002063 C100.043767,28.587375 100.141309,28.5937905 100.245355,28.6194531 C100.089286,28.7221035 99.9592297,28.8504145 99.8551835,29.0043901 L99.5430462,29.4663145 C99.4389999,29.6202901 99.3219496,29.7550167 99.1918917,29.8704983 C99.0618338,29.98598 98.8797556,30.0565511 98.6456514,30.0822137 C97.8392927,30.3901648 96.8248566,30.4094115 95.6023127,30.1399542 C94.3797689,29.870497 92.8321036,29.3764995 90.9592704,28.6579468 C90.0228538,28.2986705 89.2620267,27.9843084 88.6767664,27.7148512 C88.091506,27.4453939 87.584288,27.1759407 87.155097,26.9064835 C86.7259061,26.6370262 86.3357384,26.3483264 85.9845822,26.0403753 C85.6334259,25.7324241 85.2107442,25.3603221 84.7165244,24.924058 Z M90.2959786,11.7207191 C90.0098513,12.1313206 89.6912144,12.5034226 89.3400581,12.8370363 C88.9889019,13.1706501 88.6507566,13.5106744 88.3256119,13.8571194 C88.0004673,14.2035644 87.7078415,14.5884976 87.4477258,15.0119304 C87.18761,15.4353632 87.0055318,15.9293607 86.9014855,16.4939378 C87.8118905,16.3912874 88.7612986,16.1410809 89.7497383,15.7433107 C90.7381781,15.3455404 91.6745806,14.9670228 92.5589741,14.6077465 C92.4549278,13.8122061 92.1753076,13.1706508 91.7201051,12.6830615 C91.2649026,12.1954722 90.7901985,11.8746946 90.2959786,11.7207191 Z M121.041503,10.4119333 C120.391213,10.4119333 119.688912,10.4568421 118.934576,10.5466612 C118.18024,10.6364803 117.438922,10.7327136 116.710598,10.835364 C116.190366,10.9123518 115.689651,10.9765073 115.208437,11.0278325 C114.727223,11.0791577 114.291536,11.117651 113.901362,11.1433136 C113.719281,11.7078906 113.537203,12.2083037 113.355122,12.6445678 C113.173041,13.080832 112.977957,13.5042584 112.769864,13.9148599 C112.561772,14.351124 112.373191,14.7937972 112.204115,15.2428926 C112.03504,15.691988 111.87247,16.1731544 111.716401,16.6864063 C111.456285,17.0970078 111.241693,17.4755254 111.072618,17.8219704 C110.903542,18.1684154 110.766984,18.5597641 110.662938,18.9960283 C110.350799,19.3809672 110.116698,19.785147 109.960629,20.2085798 C109.804559,20.6320126 109.687509,20.9976991 109.609474,21.3056502 L109.453405,21.7675746 C109.297336,21.9215502 109.206297,22.0434457 109.180285,22.1332648 C109.154274,22.2230838 109.089246,22.306486 108.9852,22.3834738 C108.959188,22.6657623 108.868149,22.9480467 108.712079,23.2303352 C108.660056,23.3586482 108.621039,23.4805437 108.595028,23.5960253 C108.569016,23.711507 108.556011,23.7949092 108.556011,23.8462344 C108.556011,24.1028603 108.490983,24.2696647 108.360925,24.3466525 C108.386936,24.4749655 108.386936,24.6096921 108.360925,24.7508363 C108.334913,24.8919806 108.308902,25.0267072 108.282891,25.1550202 C108.204856,25.4629713 108.178845,25.7067623 108.204856,25.8864005 C108.282891,25.9890508 108.354422,26.0788686 108.419451,26.1558564 C108.48448,26.2328441 108.529999,26.335493 108.556011,26.4638059 C108.71208,26.5664563 108.82913,26.6306119 108.907165,26.6562744 C109.011211,26.7332622 109.167279,26.82308 109.375371,26.9257303 L109.726526,27.3106673 C109.856583,28.0548826 109.739533,28.6451134 109.375371,29.0813775 C108.985198,29.5689668 108.321912,29.8127578 107.385496,29.8127578 L106.91729,29.8127578 C106.787232,29.6844448 106.709198,29.581796 106.683187,29.5048082 C106.475094,29.4278204 106.306022,29.3636649 106.175964,29.3123397 C106.045906,29.2610145 105.928856,29.1583657 105.824809,29.0043901 C105.486659,28.8504145 105.213542,28.7221035 105.005449,28.6194531 L104.654294,28.4269846 L104.654294,27.9650602 C104.472213,27.7340969 104.335655,27.4774748 104.244614,27.1951862 C104.153574,26.9128977 104.082043,26.6306134 104.03002,26.3483248 C103.977997,26.1173615 103.919472,25.8992327 103.854443,25.693932 C103.789414,25.4886312 103.704877,25.3089957 103.600831,25.1550202 C103.548808,23.6665897 103.691869,22.4091414 104.03002,21.3826376 C104.36817,20.3561338 104.719321,19.3681388 105.083483,18.4186228 C105.291576,17.9053709 105.499665,17.3857111 105.707758,16.8596279 C105.91585,16.3335447 106.097929,15.7882228 106.253998,15.2236457 L106.605153,14.8387087 C106.787234,14.4281072 106.936798,14.0880829 107.05385,13.8186257 C107.170902,13.5491684 107.294455,13.2732997 107.424513,12.9910111 C107.502548,12.811373 107.574078,12.6381531 107.639107,12.4713462 C107.704136,12.3045393 107.762661,12.1569816 107.814685,12.0286687 C107.658615,12.0286687 107.515554,12.0350842 107.385496,12.0479155 C107.255438,12.0607468 107.125382,12.0799935 106.995324,12.1056561 C106.839255,12.1313186 106.696193,12.1505653 106.566135,12.1633966 C106.436078,12.1762279 106.306022,12.1826435 106.175964,12.1826435 C105.993883,12.1826435 105.863827,12.1698123 105.785792,12.1441498 C105.499665,12.2724627 105.187531,12.3366183 104.84938,12.3366183 L104.459209,12.3366183 C104.381174,12.3366183 104.309643,12.3302027 104.244614,12.3173714 C104.179585,12.3045401 104.12106,12.2981246 104.069037,12.2981246 C103.808921,12.2981246 103.600832,12.3366179 103.444762,12.4136056 L102.157196,12.4136056 C102.105173,12.4136056 102.040145,12.4200212 101.96211,12.4328525 C101.884076,12.4456838 101.819048,12.4520993 101.767024,12.4520993 C101.584943,12.4520993 101.38986,12.4328527 101.181767,12.3943588 C100.973674,12.3558649 100.752579,12.2724627 100.518475,12.1441498 C100.206336,11.7335482 99.9982469,11.5154195 99.8942006,11.4897569 L99.5430462,11.0278325 C99.5170346,10.8738569 99.4780178,10.7262992 99.4259947,10.5851549 C99.3739715,10.4440107 99.3219492,10.2836218 99.269926,10.1039837 C99.1658797,9.84735774 99.0683378,9.57148898 98.9772973,9.27636915 C98.8862568,8.98124931 98.8407372,8.62839392 98.8407372,8.21779241 C98.8667488,8.01249165 98.9187712,7.8585184 98.9968059,7.75586802 C99.0748406,7.65321764 99.1398686,7.5633999 99.1918917,7.48641212 L99.3089432,6.90900663 L99.8161663,6.94750033 L100.908647,6.94750033 C101.741017,6.94750033 102.586381,6.91542257 103.444762,6.85126608 C104.303144,6.78710959 105.187524,6.71653852 106.097929,6.63955073 C106.618161,6.58822554 107.144887,6.53690112 107.678125,6.48557594 C108.211362,6.43425075 108.764099,6.38292633 109.336354,6.33160114 C109.4404,6.10063779 109.544445,5.882509 109.648491,5.67720825 L110.038663,5.48473975 C110.506871,5.45907716 110.838514,5.51681713 111.033601,5.6579614 C111.228687,5.79910567 111.391257,5.93383227 111.521315,6.06214524 C112.09357,6.01082005 112.672318,5.95308008 113.257579,5.88892359 C113.842839,5.82476711 114.434594,5.74136493 115.03286,5.63871455 C115.917253,5.51040157 116.808136,5.39492163 117.705535,5.29227125 C118.602935,5.18962087 119.467806,5.13829645 120.300177,5.13829645 C120.664339,5.13829645 121.01549,5.15112756 121.35364,5.17679015 C121.69179,5.20245275 122.003925,5.24094606 122.290052,5.29227125 L122.680224,5.56172715 C122.758258,5.71570272 122.868806,5.85684487 123.011869,5.98515784 C123.154933,6.11347082 123.304497,6.24178186 123.460567,6.37009484 C123.772706,6.65238338 124.08484,6.9859921 124.396979,7.37093102 C124.709118,7.75586994 124.826168,8.32043855 124.748133,9.0646538 C124.540041,9.37260493 124.383974,9.5522404 124.279927,9.60356559 L123.928773,10.06549 L123.538601,10.0269963 C123.382532,10.0269963 123.23947,10.0462429 123.109412,10.0847368 C122.979355,10.1232307 122.849299,10.1681396 122.719241,10.2194648 C122.615194,10.27079 122.51115,10.3156988 122.407103,10.3541927 C122.303057,10.3926866 122.186007,10.4247644 122.055949,10.450427 C121.821845,10.450427 121.633264,10.4440114 121.4902,10.4311801 C121.347136,10.4183488 121.197572,10.4119333 121.041503,10.4119333 Z M135.868025,14.4537717 C135.737967,13.7352191 135.69895,12.991015 135.750973,12.2211372 C135.802996,11.4512593 135.829007,10.7070552 135.829007,9.98850258 C135.829007,9.29561253 135.783488,8.557824 135.692447,7.77511487 C135.601407,6.99240573 135.523373,6.2417861 135.458344,5.52323345 C135.393315,4.8046808 135.367304,4.1438789 135.38031,3.54080793 C135.393316,2.93773695 135.477852,2.46940163 135.633922,2.1357879 C135.842014,1.75084898 136.102126,1.44931802 136.414265,1.23118596 C136.726404,1.01305391 137.025532,0.762847363 137.31166,0.480558822 C137.64981,0.531884011 137.955441,0.628117297 138.228563,0.769261568 C138.501684,0.910405838 138.735785,1.09004131 138.930872,1.30817336 C139.125959,1.52630541 139.26902,1.75084975 139.360061,1.9818131 C139.451101,2.21277645 139.470609,2.44373634 139.418586,2.67469969 C140.068876,3.05963861 140.595602,3.57929836 140.998781,4.23369452 C141.401961,4.88809068 141.714095,5.60663255 141.935193,6.38934169 C142.156292,7.17205082 142.312359,7.99965708 142.403399,8.8721853 C142.49444,9.74471352 142.572473,10.6043975 142.637502,11.4512632 C142.702531,12.2981288 142.767559,13.1000728 142.832588,13.8571194 C142.897617,14.6141659 143.02117,15.2749678 143.203251,15.8395449 C144.34776,14.1971388 145.316677,12.7408084 146.11003,11.47051 C146.903383,10.2002116 147.703227,8.98125662 148.509585,7.81360857 C149.315944,6.64596051 150.219833,5.45908331 151.221278,4.25294137 C152.222724,3.04679942 153.503774,1.68670231 155.064469,0.172609226 C155.402619,0.223934415 155.662731,0.28808994 155.844812,0.365077723 L156.391052,0.59603992 C156.573133,0.673027704 156.768217,0.730767676 156.97631,0.769261568 C157.184402,0.80775546 157.470525,0.801339907 157.834687,0.750014718 C157.964745,1.05796585 158.062287,1.28251019 158.127316,1.42365446 C158.192345,1.56479873 158.25087,1.69952533 158.302893,1.8278383 C158.354916,1.95615128 158.419944,2.12295564 158.497979,2.3282564 L158.849133,3.25210518 C158.927168,3.35475556 158.959682,3.48948216 158.946676,3.65628903 C158.93367,3.82309589 158.914162,3.9706536 158.88815,4.09896657 C158.862139,4.22727954 158.855636,4.32992838 158.868642,4.40691617 C158.881648,4.48390395 158.966184,4.48390395 159.122253,4.40691617 C159.018207,4.84318027 158.849135,5.23452897 158.61503,5.580974 C158.380926,5.92741903 158.276881,6.34442993 158.302893,6.83201923 C157.600581,7.75587264 156.820245,8.70537439 155.961863,9.68055299 C155.103481,10.6557316 154.245112,11.6758044 153.386731,12.7408021 C152.528349,13.8057998 151.702494,14.9092748 150.909141,16.0512602 C150.115788,17.1932457 149.446,18.4057851 148.899757,19.6889148 C148.743687,19.6889148 148.626637,19.7274082 148.548602,19.8043959 C148.470568,19.8813837 148.399037,19.9712015 148.334008,20.0738518 L148.138922,20.3818014 C148.073893,20.4844518 147.963346,20.5357762 147.807276,20.5357762 C147.755253,21.3569793 147.449622,22.1332611 146.890373,22.864645 C146.331124,23.596029 145.765381,24.2183376 145.193126,24.7315895 C145.24515,24.9368902 145.271161,25.1036946 145.271161,25.2320076 C145.271161,25.3603205 145.258155,25.4886316 145.232144,25.6169446 C145.206132,25.7452575 145.186624,25.8799841 145.173618,26.0211284 C145.160612,26.1622727 145.167115,26.3354926 145.193126,26.5407933 C144.959022,27.1566956 144.653391,27.6699398 144.276223,28.0805413 C143.899055,28.4911428 143.489379,28.7990894 143.047182,29.0043901 C142.604986,29.2096909 142.14979,29.293093 141.681582,29.2545992 C141.213373,29.2161053 140.771183,29.0557165 140.354998,28.7734279 C140.172917,28.6707775 140.01685,28.5296354 139.886792,28.3499972 C139.756734,28.1703591 139.620176,27.9971391 139.477112,27.8303323 C139.334048,27.6635254 139.190987,27.5095522 139.047923,27.3684079 C138.90486,27.2272636 138.729284,27.1310303 138.521192,27.0797051 C138.573215,26.8230792 138.579718,26.553626 138.5407,26.2713375 C138.501683,25.9890489 138.443158,25.7324268 138.365123,25.5014635 C138.287088,25.2705001 138.196049,25.0780335 138.092003,24.924058 C137.987957,24.7700824 137.883912,24.6930958 137.779866,24.6930958 C137.675819,24.0515309 137.539261,23.3522357 137.370185,22.5951892 C137.20111,21.8381426 137.032037,21.087523 136.862962,20.3433077 C136.693887,19.5990925 136.557328,18.8677195 136.453282,18.1491669 C136.349236,17.4306142 136.310219,16.7633968 136.336231,16.1474945 C136.362242,15.8395434 136.303717,15.5636746 136.160653,15.31988 C136.01759,15.0760853 135.920048,14.7873855 135.868025,14.4537717 Z M175.548479,25.693932 C175.392409,26.1301961 175.164812,26.5728692 174.865679,27.0219646 C174.566546,27.47106 174.215395,27.8688242 173.812215,28.2152693 C173.409036,28.5617143 172.960343,28.8504142 172.466123,29.0813775 C171.971903,29.3123409 171.45168,29.4406519 170.905437,29.4663145 C170.567286,29.3893267 170.339688,29.3059245 170.222636,29.2161055 C170.105584,29.1262864 169.982031,29.0428842 169.851973,28.9658964 C169.773938,28.9145712 169.702408,28.8696624 169.637379,28.8311685 C169.57235,28.7926746 169.513825,28.7605968 169.461802,28.7349342 L168.993596,28.5424657 L169.149664,28.0420476 C169.201687,27.8367469 169.188682,27.6763581 169.110647,27.5608764 C169.032612,27.4453947 168.876545,27.2850059 168.642441,27.0797051 L168.408338,26.8487429 C168.330303,26.7717552 168.265276,26.6947685 168.213252,26.6177807 L167.549961,25.8864005 L168.603424,25.6169446 C169.253713,25.4373064 169.689401,25.2063465 169.910499,24.924058 C170.131597,24.6417694 170.216134,24.1670186 170.16411,23.4997911 C169.643879,23.3971407 169.208192,23.3843096 168.857036,23.4612974 C168.505879,23.5382852 168.148226,23.6281029 167.784064,23.7307533 C167.315855,23.8590663 166.841151,23.9681307 166.359937,24.0579497 C165.878723,24.1477688 165.351997,24.1926777 164.779742,24.1926777 C164.571649,24.1926777 164.376566,24.1862621 164.194485,24.1734308 C164.012404,24.1605995 163.81732,24.1413529 163.609227,24.1156903 L163.219056,24.0387029 C163.167032,23.7564143 163.11501,23.5960255 163.062987,23.5575316 C163.010964,23.5190377 162.958941,23.4741289 162.906918,23.4228037 C162.77686,23.2944907 162.640302,23.1212708 162.497238,22.9031387 C162.354174,22.6850067 162.32166,22.4091379 162.399695,22.0755242 C162.269637,21.8445609 162.191604,21.613601 162.165592,21.3826376 C162.009523,21.6905888 161.892472,22.0113664 161.814438,22.3449801 L161.658369,22.7299171 L161.268197,22.8069045 C161.216174,22.8325671 161.177157,22.8903071 161.151146,22.9801261 C161.125134,23.0699452 161.112129,23.1405163 161.112129,23.1918415 L160.917043,23.8462344 C160.86502,23.8975596 160.812997,23.9424684 160.760974,23.9809623 C160.708951,24.0194562 160.656929,24.0643651 160.604906,24.1156903 C160.552883,24.3466536 160.487855,24.5776135 160.40982,24.8085769 C160.331785,25.0395402 160.253752,25.257669 160.175717,25.4629698 C160.045659,25.7965835 159.935111,26.1237767 159.844071,26.4445591 C159.75303,26.7653415 159.720517,27.0797036 159.746528,27.3876547 L159.590459,27.8110854 C159.460402,27.965061 159.31734,28.0869565 159.161271,28.1767756 C159.005201,28.2665947 158.849134,28.3499968 158.693065,28.4269846 C158.641042,28.4783098 158.569511,28.5232187 158.47847,28.5617126 C158.38743,28.6002065 158.315899,28.6322842 158.263876,28.6579468 L158.146824,29.0813775 L157.678618,29.1583649 C157.392491,29.2096901 157.190905,29.2481834 157.073852,29.273846 C156.9568,29.2995086 156.820242,29.3123397 156.664172,29.3123397 L156.274001,29.273846 C155.987873,29.0428827 155.766778,28.8568316 155.610709,28.7156874 C155.454639,28.5745431 155.272561,28.4398165 155.064469,28.3115035 C154.830364,28.0035524 154.700309,27.7725925 154.674297,27.6186169 C154.648285,27.4646414 154.622274,27.3234992 154.596263,27.1951862 C154.544239,27.0412107 154.511725,26.9128996 154.49872,26.8102492 C154.485714,26.7075989 154.4532,26.6306122 154.401177,26.579287 L153.893954,26.1173627 L154.323142,25.7709194 L154.36216,25.1165265 C154.882391,23.8077341 155.435129,22.5502859 156.020389,21.3441439 C156.605649,20.138002 157.210409,18.9062159 157.834687,17.6487488 C158.04278,17.2381473 158.244366,16.8275519 158.439453,16.4169504 C158.63454,16.0063489 158.836127,15.5957535 159.044219,15.185152 C159.018208,15.1081642 159.005202,15.0183465 159.005202,14.9156961 C159.005202,14.8130457 159.031213,14.6975658 159.083236,14.5692528 C159.369364,14.1329887 159.603464,13.74164 159.785545,13.395195 C159.967626,13.04875 160.149705,12.6958946 160.331786,12.3366183 C160.539878,11.9003541 160.75447,11.4769277 160.975569,11.0663262 C161.196667,10.6557247 161.476287,10.2322982 161.814438,9.79603409 L162.438712,9.52657819 C162.516747,9.5009156 162.607786,9.46883783 162.711832,9.43034394 C162.815879,9.39185005 162.932929,9.37260339 163.062987,9.37260339 L163.648244,9.44959079 C164.376568,9.11597706 165.013842,8.64764174 165.560085,8.04457076 C166.106328,7.44149979 166.665569,6.71654237 167.237823,5.86967674 L167.627995,5.33076495 L168.135218,5.63871455 C168.265276,5.71570233 168.447354,5.78627341 168.681458,5.85042989 C168.915562,5.91458638 169.162669,5.98515746 169.422784,6.06214524 C169.890993,6.16479562 170.333183,6.28027556 170.749368,6.40858854 C171.165553,6.53690151 171.503698,6.72936808 171.763814,6.98599403 C171.919884,7.39659554 172.010923,7.70454206 172.036934,7.90984281 C172.062946,8.11514357 172.101963,8.32044125 172.153986,8.52574201 C172.23202,8.96200611 172.303551,9.39826368 172.36858,9.83452779 C172.433609,10.2707919 172.479129,10.7583739 172.50514,11.2972884 C172.635198,11.7335525 172.745746,12.1633945 172.836786,12.5868273 C172.927827,13.0102601 173.012363,13.4401021 173.090398,13.8763662 C173.220456,14.4922685 173.350511,15.0889149 173.480569,15.6663233 C173.610627,16.2437316 173.7797,16.7890536 173.987792,17.3023055 C174.195885,17.3023055 174.325941,17.3151366 174.377964,17.3407992 C174.508022,17.289474 174.644581,17.2509807 174.787644,17.2253181 C174.930708,17.1996555 175.093278,17.1739933 175.275359,17.1483307 L175.704548,17.109837 L175.860616,17.494774 C175.886628,17.6230869 176.016684,17.751398 176.250788,17.879711 C176.588938,17.9053736 176.836045,17.9759446 176.992114,18.0914263 C177.148183,18.206908 177.291245,18.3288035 177.421303,18.4571165 C177.525349,18.5597668 177.629394,18.6367535 177.73344,18.6880787 L178.318697,18.9190409 L178.00656,19.4964463 C177.746444,19.9583731 177.375785,20.4010462 176.894571,20.824479 C176.413357,21.2479118 175.873625,21.6007672 175.275359,21.8830557 C175.30137,22.0370313 175.320879,22.184589 175.333885,22.3257333 C175.34689,22.4668775 175.379404,22.6144352 175.431427,22.7684108 C175.509462,23.2046749 175.57449,23.6537636 175.626513,24.1156903 C175.678536,24.577617 175.678536,25.0523679 175.626513,25.5399572 L175.548479,25.693932 Z M164.272519,19.034522 C165.052866,18.9831968 165.761671,18.9254568 166.398954,18.8613003 C167.036238,18.7971438 167.745043,18.6880794 168.52539,18.5341039 C168.343309,17.764226 168.148225,16.962282 167.940132,16.1282476 C167.73204,15.2942133 167.510945,14.4666071 167.27684,13.645404 L167.042737,14.030341 C166.522506,14.5692555 166.021791,15.1723174 165.540577,15.8395449 C165.059363,16.5067724 164.649687,17.1354965 164.311536,17.7257362 L163.84333,18.4186228 C163.687261,18.6495861 163.544199,18.880546 163.414141,19.1115094 C163.570211,19.0858468 163.719775,19.0730157 163.862839,19.0730157 C164.005902,19.0730157 164.142461,19.0601845 164.272519,19.034522 Z M205.78678,21.9985368 C205.162502,23.1020284 204.34315,23.9552969 203.328699,24.5583678 C202.314247,25.1614388 201.195767,25.6618519 199.973223,26.0596221 C198.750679,26.4573923 197.469628,26.8102477 196.130032,27.1181988 C194.790436,27.42615 193.49638,27.8239142 192.247825,28.3115035 C191.883663,28.3115035 191.565026,28.3243346 191.291904,28.3499972 C191.018783,28.3756598 190.758671,28.4077376 190.511561,28.4462315 C190.264451,28.4847254 190.023847,28.5232187 189.789743,28.5617126 C189.555639,28.6002065 189.295527,28.6322842 189.0094,28.6579468 C188.905354,28.6322842 188.840326,28.6515309 188.814314,28.7156874 C188.788303,28.7798439 188.749286,28.8375838 188.697263,28.888909 C188.255066,28.9658968 187.858395,29.0043901 187.507239,29.0043901 L186.629353,29.0043901 C186.317214,29.0043901 185.998577,29.049299 185.673433,29.1391181 C185.348288,29.2289371 185.055662,29.2610149 184.795546,29.2353523 C182.844679,29.1327019 181.316522,28.4462378 180.21103,27.1759394 C179.105538,25.905641 178.487772,24.141364 178.357715,21.8830557 C178.383726,21.7547427 178.364218,21.6777561 178.299189,21.6520935 C178.23416,21.6264309 178.175635,21.5879376 178.123612,21.5366124 C178.123612,21.2799865 178.156126,21.0618577 178.221155,20.8822195 C178.286183,20.7025814 178.292686,20.4716215 178.240663,20.1893329 C178.916964,18.7778902 179.684294,17.462702 180.542676,16.2437287 C181.401058,15.0247555 182.428499,13.9533582 183.625032,13.0295048 C183.807113,12.8755293 183.96318,12.721556 184.093238,12.5675804 C184.223295,12.4136049 184.346849,12.2596316 184.463901,12.1056561 C184.580953,11.9516805 184.717511,11.8169539 184.873581,11.7014722 C185.02965,11.5859905 185.224734,11.5025884 185.458838,11.4512632 C186.005081,10.8353609 186.655361,10.2707923 187.409696,9.75754039 C188.164032,9.2442885 188.957373,8.75029096 189.789743,8.27553296 C190.622114,7.80077496 191.447969,7.32602408 192.267333,6.85126608 C193.086698,6.37650808 193.834519,5.84401723 194.51082,5.25377755 C194.796947,5.38209053 195.005037,5.42058384 195.135095,5.36925865 C195.265152,5.31793346 195.408214,5.31793346 195.564283,5.36925865 C195.746364,5.75419757 195.999973,6.02365077 196.325118,6.17762634 C196.650263,6.33160191 196.975402,6.49199072 197.300547,6.65879758 C197.625692,6.82560445 197.931323,7.02448657 198.21745,7.25544992 C198.503578,7.48641328 198.724673,7.79435979 198.880742,8.17929871 C198.724673,8.17929871 198.653142,8.23703868 198.666148,8.35252036 C198.679154,8.46800203 198.711668,8.58348198 198.763691,8.69896365 C198.815714,8.81444533 198.835222,8.92992527 198.822216,9.04540695 C198.809211,9.16088862 198.711669,9.2186286 198.529588,9.2186286 C198.555599,9.34694157 198.640136,9.41751265 198.783199,9.43034394 C198.926263,9.44317524 198.997794,9.51374632 198.997794,9.64205929 C198.997794,9.77037226 198.96528,9.8730211 198.900251,9.95000889 C198.835222,10.0269967 198.828719,10.1553077 198.880742,10.3349459 C198.360511,10.6685596 197.781762,10.9893372 197.144478,11.2972884 C196.507195,11.6052395 195.84391,11.9324327 195.154603,12.2788777 C194.465296,12.6253227 193.749989,12.9974248 193.008659,13.395195 C192.267329,13.7929652 191.545519,14.2484694 190.843207,14.7617213 C190.140894,15.2749732 189.425587,15.8459574 188.697263,16.4746909 C187.968939,17.1034245 187.266637,17.7642264 186.590336,18.4571165 C185.914035,19.1500065 185.276761,19.8621328 184.678495,20.5935168 C184.080229,21.3249007 183.573011,22.0498582 183.156826,22.7684108 C183.208849,22.8967238 183.267374,22.9929571 183.332403,23.0571135 C183.397432,23.12127 183.455957,23.2175033 183.50798,23.3458163 C184.34035,23.3971415 185.114183,23.3907259 185.829501,23.3265694 C186.54482,23.262413 187.26663,23.3073218 187.994954,23.4612974 C188.072989,23.4099722 188.125011,23.3329856 188.151022,23.2303352 C188.177034,23.1276848 188.242062,23.0506982 188.346108,22.999373 C189.828768,22.8453974 191.20736,22.608022 192.481928,22.2872396 C193.756495,21.9664571 195.057054,21.6264328 196.383644,21.2671565 C196.175551,21.1901687 195.98697,21.1195977 195.817895,21.0554412 C195.64882,20.9912847 195.48625,20.9335447 195.33018,20.8822195 C195.200123,20.7539066 195.206625,20.6448422 195.349689,20.5550231 C195.492753,20.465204 195.616306,20.3689707 195.720352,20.2663203 C195.35619,20.0610196 195.063564,19.8043975 194.842466,19.4964463 C194.621367,19.1884952 194.484809,18.7778999 194.432786,18.264648 C194.588855,18.136335 194.666889,17.9823617 194.666889,17.8027236 C194.666889,17.6230854 194.588855,17.4819433 194.432786,17.3792929 C194.328739,17.3536303 194.263711,17.3536303 194.2377,17.3792929 C194.211688,17.4049555 194.19218,17.4434488 194.179174,17.494774 C194.166168,17.5460992 194.14666,17.591008 194.120648,17.6295019 C194.094637,17.6679958 194.029609,17.6615803 193.925563,17.6102551 C193.951574,17.3792917 194.010099,17.1868252 194.10114,17.0328496 C194.19218,16.878874 194.263711,16.6992385 194.315734,16.4939378 L197.007918,14.7232276 C197.294046,14.9285284 197.645197,15.1530727 198.061382,15.3968674 C198.477567,15.640662 198.913254,15.884453 199.368457,16.1282476 C199.823659,16.3720423 200.29186,16.6158333 200.773075,16.8596279 C201.254289,17.1034226 201.702982,17.340798 202.119167,17.5717614 C202.483329,17.7257369 202.808468,17.9310346 203.094596,18.1876606 C203.380723,18.4442865 203.65384,18.7073242 203.913956,18.9767814 C204.174072,19.2462386 204.440686,19.5092763 204.713808,19.7659022 C204.986929,20.0225282 205.305566,20.240657 205.669728,20.4202951 C205.617705,20.7539089 205.630711,21.0233621 205.708746,21.2286628 C205.78678,21.4339636 205.812792,21.6905857 205.78678,21.9985368 Z M224.827155,25.693932 C224.671086,26.1301961 224.443488,26.5728692 224.144355,27.0219646 C223.845222,27.47106 223.494071,27.8688242 223.090892,28.2152693 C222.687712,28.5617143 222.239019,28.8504142 221.744799,29.0813775 C221.25058,29.3123409 220.730356,29.4406519 220.184113,29.4663145 C219.845963,29.3893267 219.618365,29.3059245 219.501313,29.2161055 C219.384261,29.1262864 219.260707,29.0428842 219.13065,28.9658964 C219.052615,28.9145712 218.981084,28.8696624 218.916055,28.8311685 C218.851026,28.7926746 218.792501,28.7605968 218.740478,28.7349342 L218.272272,28.5424657 L218.428341,28.0420476 C218.480364,27.8367469 218.467358,27.6763581 218.389323,27.5608764 C218.311289,27.4453947 218.155222,27.2850059 217.921118,27.0797051 L217.687015,26.8487429 C217.60898,26.7717552 217.543952,26.6947685 217.491929,26.6177807 L216.828637,25.8864005 L217.8821,25.6169446 C218.53239,25.4373064 218.968077,25.2063465 219.189175,24.924058 C219.410274,24.6417694 219.49481,24.1670186 219.442787,23.4997911 C218.922555,23.3971407 218.486868,23.3843096 218.135712,23.4612974 C217.784556,23.5382852 217.426902,23.6281029 217.06274,23.7307533 C216.594532,23.8590663 216.119828,23.9681307 215.638614,24.0579497 C215.157399,24.1477688 214.630673,24.1926777 214.058418,24.1926777 C213.850326,24.1926777 213.655242,24.1862621 213.473161,24.1734308 C213.29108,24.1605995 213.095996,24.1413529 212.887904,24.1156903 L212.497732,24.0387029 C212.445709,23.7564143 212.393686,23.5960255 212.341663,23.5575316 C212.28964,23.5190377 212.237618,23.4741289 212.185595,23.4228037 C212.055537,23.2944907 211.918978,23.1212708 211.775914,22.9031387 C211.632851,22.6850067 211.600337,22.4091379 211.678372,22.0755242 C211.548314,21.8445609 211.47028,21.613601 211.444269,21.3826376 C211.288199,21.6905888 211.171149,22.0113664 211.093114,22.3449801 L210.937045,22.7299171 L210.546874,22.8069045 C210.494851,22.8325671 210.455834,22.8903071 210.429822,22.9801261 C210.403811,23.0699452 210.390805,23.1405163 210.390805,23.1918415 L210.195719,23.8462344 C210.143696,23.8975596 210.091674,23.9424684 210.039651,23.9809623 C209.987628,24.0194562 209.935605,24.0643651 209.883582,24.1156903 C209.831559,24.3466536 209.766531,24.5776135 209.688496,24.8085769 C209.610462,25.0395402 209.532428,25.257669 209.454393,25.4629698 C209.324335,25.7965835 209.213788,26.1237767 209.122747,26.4445591 C209.031707,26.7653415 208.999193,27.0797036 209.025204,27.3876547 L208.869136,27.8110854 C208.739078,27.965061 208.596016,28.0869565 208.439947,28.1767756 C208.283878,28.2665947 208.12781,28.3499968 207.971741,28.4269846 C207.919718,28.4783098 207.848187,28.5232187 207.757147,28.5617126 C207.666106,28.6002065 207.594575,28.6322842 207.542552,28.6579468 L207.425501,29.0813775 L206.957295,29.1583649 C206.671168,29.2096901 206.469581,29.2481834 206.352529,29.273846 C206.235477,29.2995086 206.098918,29.3123397 205.942849,29.3123397 L205.552677,29.273846 C205.26655,29.0428827 205.045455,28.8568316 204.889385,28.7156874 C204.733316,28.5745431 204.551238,28.4398165 204.343145,28.3115035 C204.109041,28.0035524 203.978985,27.7725925 203.952973,27.6186169 C203.926962,27.4646414 203.900951,27.3234992 203.874939,27.1951862 C203.822916,27.0412107 203.790402,26.9128996 203.777396,26.8102492 C203.76439,26.7075989 203.731876,26.6306122 203.679853,26.579287 L203.17263,26.1173627 L203.601819,25.7709194 L203.640836,25.1165265 C204.161067,23.8077341 204.713805,22.5502859 205.299065,21.3441439 C205.884326,20.138002 206.489086,18.9062159 207.113363,17.6487488 C207.321456,17.2381473 207.523043,16.8275519 207.71813,16.4169504 C207.913216,16.0063489 208.114803,15.5957535 208.322896,15.185152 C208.296884,15.1081642 208.283878,15.0183465 208.283878,14.9156961 C208.283878,14.8130457 208.30989,14.6975658 208.361913,14.5692528 C208.64804,14.1329887 208.882141,13.74164 209.064222,13.395195 C209.246303,13.04875 209.428381,12.6958946 209.610462,12.3366183 C209.818554,11.9003541 210.033147,11.4769277 210.254245,11.0663262 C210.475343,10.6557247 210.754964,10.2322982 211.093114,9.79603409 L211.717389,9.52657819 C211.795423,9.5009156 211.886463,9.46883783 211.990509,9.43034394 C212.094555,9.39185005 212.211605,9.37260339 212.341663,9.37260339 L212.926921,9.44959079 C213.655245,9.11597706 214.292519,8.64764174 214.838762,8.04457076 C215.385005,7.44149979 215.944245,6.71654237 216.5165,5.86967674 L216.906671,5.33076495 L217.413894,5.63871455 C217.543952,5.71570233 217.726031,5.78627341 217.960135,5.85042989 C218.194239,5.91458638 218.441345,5.98515746 218.701461,6.06214524 C219.169669,6.16479562 219.611859,6.28027556 220.028044,6.40858854 C220.444229,6.53690151 220.782375,6.72936808 221.042491,6.98599403 C221.19856,7.39659554 221.289599,7.70454206 221.315611,7.90984281 C221.341622,8.11514357 221.380639,8.32044125 221.432662,8.52574201 C221.510697,8.96200611 221.582228,9.39826368 221.647257,9.83452779 C221.712285,10.2707919 221.757805,10.7583739 221.783817,11.2972884 C221.913874,11.7335525 222.024422,12.1633945 222.115463,12.5868273 C222.206503,13.0102601 222.291039,13.4401021 222.369074,13.8763662 C222.499132,14.4922685 222.629188,15.0889149 222.759246,15.6663233 C222.889304,16.2437316 223.058376,16.7890536 223.266469,17.3023055 C223.474561,17.3023055 223.604617,17.3151366 223.65664,17.3407992 C223.786698,17.289474 223.923257,17.2509807 224.066321,17.2253181 C224.209384,17.1996555 224.371954,17.1739933 224.554035,17.1483307 L224.983224,17.109837 L225.139293,17.494774 C225.165304,17.6230869 225.29536,17.751398 225.529464,17.879711 C225.867615,17.9053736 226.114721,17.9759446 226.27079,18.0914263 C226.42686,18.206908 226.569921,18.3288035 226.699979,18.4571165 C226.804025,18.5597668 226.90807,18.6367535 227.012116,18.6880787 L227.597374,18.9190409 L227.285237,19.4964463 C227.025121,19.9583731 226.654461,20.4010462 226.173247,20.824479 C225.692033,21.2479118 225.152301,21.6007672 224.554035,21.8830557 C224.580047,22.0370313 224.599555,22.184589 224.612561,22.3257333 C224.625567,22.4668775 224.658081,22.6144352 224.710104,22.7684108 C224.788139,23.2046749 224.853166,23.6537636 224.90519,24.1156903 C224.957213,24.577617 224.957213,25.0523679 224.90519,25.5399572 L224.827155,25.693932 Z M213.551195,19.034522 C214.331542,18.9831968 215.040347,18.9254568 215.677631,18.8613003 C216.314914,18.7971438 217.023719,18.6880794 217.804066,18.5341039 C217.621985,17.764226 217.426901,16.962282 217.218809,16.1282476 C217.010716,15.2942133 216.789621,14.4666071 216.555517,13.645404 L216.321414,14.030341 C215.801182,14.5692555 215.300467,15.1723174 214.819253,15.8395449 C214.338039,16.5067724 213.928363,17.1354965 213.590212,17.7257362 L213.122007,18.4186228 C212.965937,18.6495861 212.822876,18.880546 212.692818,19.1115094 C212.848887,19.0858468 212.998451,19.0730157 213.141515,19.0730157 C213.284579,19.0730157 213.421137,19.0601845 213.551195,19.034522 Z M248.042367,22.6529297 C248.198436,22.7299175 248.289476,22.8582285 248.315487,23.0378667 C248.341499,23.2175049 248.341499,23.358647 248.315487,23.4612974 C247.847279,24.0515371 247.522139,24.4621324 247.340058,24.6930958 C247.157977,24.9240591 247.027921,25.097279 246.949887,25.2127607 C246.871852,25.3282424 246.787315,25.4244757 246.696275,25.5014635 C246.605234,25.5784512 246.403648,25.7452556 246.091509,26.0018816 C244.920988,26.6947716 243.717971,27.3106646 242.482421,27.8495791 C241.246872,28.3884936 239.952815,28.7605957 238.600214,28.9658964 C238.392121,29.248185 237.995451,29.4470671 237.41019,29.5625488 C236.82493,29.6780304 236.285198,29.7870948 235.790978,29.8897452 C235.686932,29.83842 235.628407,29.7678489 235.615401,29.6780299 C235.602395,29.5882108 235.54387,29.5176397 235.439824,29.4663145 C235.413812,29.7229405 235.296762,29.8576671 235.088669,29.8704983 C234.880577,29.8833296 234.626967,29.8320052 234.327834,29.7165236 C234.028701,29.6010419 233.716567,29.4470686 233.391423,29.2545992 C233.066278,29.0621297 232.786658,28.8889098 232.552554,28.7349342 C232.422496,28.940235 232.285937,29.1455326 232.142873,29.3508334 C231.99981,29.5561342 231.824234,29.6972763 231.616142,29.7742641 L230.972358,29.658783 C230.829295,29.6331204 230.692736,29.6844448 230.562678,29.8127578 C230.406609,29.73577 230.283056,29.6459523 230.192015,29.5433019 C230.100975,29.4406515 230.009936,29.3444182 229.918895,29.2545992 C229.827855,29.1647801 229.72381,29.0813779 229.606758,29.0043901 C229.489706,28.9274023 229.327136,28.8632468 229.119043,28.8119216 C229.171066,28.7092712 229.145055,28.5488824 229.041009,28.3307504 C228.936963,28.1126183 228.780895,27.9778917 228.572803,27.9265665 C228.676849,27.7469284 228.63133,27.522384 228.436243,27.2529268 C228.241156,26.9834695 228.091592,26.6819386 227.987545,26.3483248 C228.039569,26.0660363 228.078585,25.7580898 228.104597,25.4244761 C228.130609,25.0908623 228.286676,24.8983958 228.572803,24.8470706 C228.546791,24.6674324 228.507775,24.5134592 228.455751,24.3851462 L228.299683,24.0002092 C228.481764,23.8462336 228.61182,23.6601826 228.689854,23.4420505 C228.767889,23.2239185 228.832917,22.9993742 228.88494,22.7684108 C228.936963,22.5374474 229.001991,22.3064876 229.080026,22.0755242 C229.158061,21.8445609 229.301122,21.6520943 229.509215,21.4981187 C229.743319,20.7282409 229.925397,20.1572567 230.055455,19.7851491 C230.185513,19.4130415 230.283055,19.047355 230.348084,18.6880787 C230.413113,18.3288023 230.491146,17.9438692 230.582187,17.5332677 C230.673227,17.1226662 230.835797,16.609422 231.069901,15.9935197 C231.04389,15.6085808 231.082907,15.2685565 231.186953,14.9734367 C231.290999,14.6783168 231.401547,14.3832014 231.518599,14.0880816 C231.635651,13.7929617 231.733193,13.4850152 231.811227,13.1642328 C231.889262,12.8434504 231.876257,12.4649328 231.77221,12.0286687 C231.408048,12.0543313 231.147936,12.1762267 230.991867,12.3943588 C230.835798,12.6124909 230.731753,12.9011907 230.67973,13.260467 C230.471637,13.4657678 230.218028,13.5620011 229.918895,13.5491698 C229.619762,13.5363385 229.353147,13.5684162 229.119043,13.645404 C228.208638,13.2861277 227.454314,12.7728835 226.856048,12.1056561 C226.257782,11.4384286 225.776575,10.6557312 225.412413,9.75754039 C225.646517,9.16730071 225.997668,8.67330318 226.465876,8.27553296 C226.934084,7.87776274 227.467314,7.54415402 228.06558,7.27469677 C228.663846,7.00523953 229.30112,6.78711075 229.977421,6.62030388 L231.928279,6.13913264 C232.94273,5.95949448 233.957166,5.7541968 234.971618,5.52323345 C235.986069,5.2922701 237.078539,5.21528347 238.249059,5.29227125 C238.405129,5.21528347 238.59371,5.1703746 238.814808,5.1575433 C239.035906,5.14471201 239.263504,5.13829645 239.497608,5.13829645 C239.731713,5.13829645 239.95931,5.1318809 240.180409,5.1190496 C240.401507,5.10621831 240.590088,5.06130944 240.746158,4.98432166 C240.876216,5.13829722 241.064797,5.23453051 241.311907,5.2730244 C241.559016,5.31151829 241.825631,5.43341379 242.111758,5.63871455 C242.423897,5.4077512 242.690512,5.35642678 242.91161,5.48473975 C243.132709,5.61305272 243.334295,5.75419488 243.516376,5.90817044 C243.698457,6.06214601 243.874033,6.20328816 244.043108,6.33160114 C244.212183,6.45991411 244.387759,6.52406963 244.56984,6.52406963 C244.751921,6.75503299 244.979518,6.97316177 245.25264,7.17846253 C245.525761,7.38376328 245.785873,7.59547651 246.032983,7.81360857 C246.280093,8.03174062 246.488183,8.26911606 246.657258,8.52574201 C246.826333,8.78236795 246.910869,9.07748336 246.910869,9.41109709 C246.884858,9.53941007 246.923875,9.6163967 247.027921,9.64205929 C247.131967,9.66772188 247.210001,9.7190463 247.262024,9.79603409 C247.288035,10.5915745 247.164482,11.2780386 246.891361,11.855447 C246.618239,12.4328554 246.280094,12.9653462 245.876915,13.4529355 C245.473735,13.9405248 245.031545,14.4024446 244.550331,14.8387087 C244.069117,15.2749728 243.63343,15.7368926 243.243256,16.2244819 C243.503372,16.5580956 243.8025,16.853211 244.140651,17.109837 C244.478801,17.3664629 244.823449,17.623085 245.174606,17.879711 C245.525762,18.1363369 245.857404,18.4057901 246.169543,18.6880787 C246.481682,18.9703672 246.741794,19.3039759 246.949887,19.6889148 C247.00191,19.74024 247.066938,19.7851489 247.144972,19.8236428 C247.223007,19.8621367 247.301041,19.9070456 247.379075,19.9583707 C247.45711,20.2149967 247.561155,20.4780343 247.691213,20.7474916 C247.82127,21.0169488 247.931818,21.2735709 248.022858,21.5173656 C248.113899,21.7611602 248.172424,21.979289 248.198436,22.1717585 C248.224447,22.3642279 248.172425,22.5246167 248.042367,22.6529297 Z M241.175346,9.79603409 C239.848756,9.7447089 238.528689,9.86018884 237.215104,10.1424774 C235.90152,10.4247659 234.802548,10.8225302 233.918154,11.3357821 C234.360351,11.6950584 234.809044,12.015836 235.264246,12.2981246 C235.719449,12.5804131 236.077103,12.9653462 236.337218,13.4529355 C237.35167,13.042334 238.249055,12.5226743 239.029403,11.8939407 C239.80975,11.2652071 240.525057,10.5659119 241.175346,9.79603409 Z M241.68257,22.0755242 C241.760604,21.8188983 241.903666,21.6136006 242.111758,21.459625 C242.319851,21.3056495 242.52794,21.1580917 242.736033,21.0169475 C242.944126,20.8758032 243.126204,20.7218299 243.282273,20.5550231 C243.438343,20.3882162 243.503371,20.1508408 243.477359,19.8428896 C242.644989,19.4066255 241.884162,19.1435879 241.194855,19.0537688 C240.505548,18.9639497 239.855269,18.9639497 239.243997,19.0537688 C238.632725,19.1435879 238.047473,19.2783145 237.488225,19.4579526 C236.928976,19.6375908 236.363233,19.7659019 235.790978,19.8428896 C235.504851,20.5871049 235.205722,21.3954645 234.893583,22.2679927 C234.581444,23.1405209 234.282316,23.9873738 233.996189,24.8085769 C234.776536,24.7059265 235.491843,24.5455377 236.142132,24.3274056 C236.792422,24.1092736 237.423193,23.8718981 238.034465,23.6152722 C238.645737,23.3586462 239.243994,23.0956086 239.829254,22.8261513 C240.414515,22.5566941 241.03228,22.3064876 241.68257,22.0755242 Z M272.272025,17.3792929 C272.246013,17.687244 272.272025,17.9823594 272.350059,18.264648 C272.428094,18.5469365 272.525636,18.8228053 272.642688,19.0922625 C272.75974,19.3617197 272.870288,19.6375885 272.974334,19.919877 C273.07838,20.2021656 273.156414,20.4844499 273.208437,20.7667384 C273.26046,21.1260148 273.26046,21.5173635 273.208437,21.9407963 C273.156414,22.3642291 273.065375,22.7748244 272.935317,23.1725946 C272.805259,23.5703649 272.636186,23.9296358 272.428094,24.2504182 C272.220001,24.5712007 271.972895,24.8085761 271.686768,24.9625517 C271.322606,25.4244784 270.880416,25.7837493 270.360184,26.0403753 C269.839953,26.2970012 269.358746,26.6049477 268.916549,26.964224 C268.630422,27.1438622 268.311785,27.2721733 267.960629,27.349161 C267.609472,27.4261488 267.251819,27.5031354 266.887657,27.5801232 C266.601529,27.7340988 266.263384,27.8944876 265.87321,28.0612945 C265.483037,28.2281013 265.079863,28.3820746 264.663678,28.5232189 C264.247493,28.6643631 263.831314,28.767012 263.415129,28.8311685 C262.998944,28.8953249 262.634787,28.9145716 262.322649,28.888909 C261.542301,29.1711976 260.781474,29.3572486 260.040145,29.4470677 C259.298815,29.5368867 258.433943,29.4791468 257.445503,29.273846 C256.509087,29.402159 255.644215,29.3636657 254.850862,29.1583649 C254.057509,28.9530642 253.355207,28.625871 252.743935,28.1767756 C252.132663,27.7276802 251.599434,27.1887738 251.144231,26.5600402 C250.689029,25.9313066 250.31837,25.2705047 250.032242,24.5776147 C249.82415,23.1148468 249.876172,21.7868274 250.188311,20.5935168 C250.50045,19.4002061 250.949143,18.2967311 251.534403,17.2830586 C252.119663,16.2693861 252.789451,15.3327155 253.543787,14.4730186 C254.298123,13.6133217 255.026436,12.7728843 255.728748,11.9516813 C255.884818,12.0030064 256.008371,11.9965909 256.099411,11.9324344 C256.190452,11.8682779 256.274988,11.7784602 256.353023,11.6629785 C256.431057,11.5474968 256.515594,11.4384324 256.606634,11.3357821 C256.697675,11.2331317 256.808222,11.1689762 256.93828,11.1433136 C257.120361,10.7583746 257.386976,10.4696748 257.738132,10.2772053 C258.089288,10.0847359 258.368908,9.80886712 258.577001,9.44959079 C258.811105,9.3982656 259.006189,9.32127897 259.162258,9.2186286 C259.318328,9.11597822 259.467892,9.00049827 259.610956,8.8721853 C259.754019,8.74387233 259.903584,8.62197683 260.059653,8.50649516 C260.215723,8.39101348 260.397801,8.3076113 260.605893,8.25628611 L260.605893,7.83285542 C261.074102,7.62755466 261.41875,7.39017922 261.639848,7.12072198 C261.860947,6.85126473 262.127561,6.52407156 262.4397,6.13913264 C262.673804,6.11347005 262.862385,6.10063894 263.005449,6.10063894 C263.148513,6.10063894 263.363105,6.07497673 263.649232,6.02365154 C263.857325,5.66437522 264.045906,5.39492202 264.214981,5.21528385 C264.384056,5.03564569 264.637665,4.84317912 264.975816,4.63787836 C265.287955,4.79185393 265.632603,4.89450277 266.00977,4.94582796 C266.386938,4.99715315 266.718581,5.16395751 267.004708,5.44624605 C267.03072,5.702872 267.108753,5.90175412 267.238811,6.04289839 C267.368869,6.18404266 267.51193,6.31235371 267.668,6.42783539 C267.824069,6.54331706 267.973634,6.66521256 268.116697,6.79352553 C268.259761,6.9218385 268.357303,7.10147397 268.409326,7.33243732 C268.513372,7.35809992 268.584903,7.34526881 268.62392,7.29394362 C268.662938,7.24261843 268.734468,7.22978733 268.838515,7.25544992 C268.916549,7.61472625 269.007589,7.85210169 269.111635,7.96758336 C269.215681,8.08306504 269.319726,8.30760937 269.423772,8.6412231 C269.293714,8.89784905 269.196172,9.1608867 269.131143,9.43034394 C269.066115,9.69980119 268.903545,9.89868331 268.643429,10.0269963 C268.617417,10.2066344 268.66944,10.3028677 268.799498,10.315699 C268.929555,10.3285303 269.007589,10.3991014 269.033601,10.5274144 C269.059612,10.7583777 269.020595,10.9251821 268.916549,11.0278325 C269.540827,12.0286737 270.100067,13.0872398 270.594287,14.2035627 C271.088507,15.3198855 271.647747,16.3784517 272.272025,17.3792929 Z M267.39488,21.0361943 C267.498926,20.7539058 267.635485,20.5229459 267.80456,20.3433077 C267.973635,20.1636696 268.071177,19.8942164 268.097189,19.53494 C267.967131,19.3296393 267.889097,19.1692505 267.863086,19.0537688 C267.837074,18.9382871 267.824069,18.7522361 267.824069,18.4956102 C267.251814,17.7000697 266.757601,16.8468013 266.341416,15.9357791 C265.925231,15.024757 265.45703,14.1714886 264.936798,13.3759481 C264.884775,13.4785985 264.793736,13.5812474 264.663678,13.6838977 C264.53362,13.7865481 264.390559,13.7608859 264.23449,13.6069103 C264.182466,13.8122111 264.091427,13.9597688 263.961369,14.0495879 C263.831312,14.139407 263.68825,14.1779003 263.532181,14.165069 C263.376111,14.1522377 263.213541,14.1137444 263.044466,14.0495879 C262.875391,13.9854314 262.725827,13.9020292 262.595769,13.7993788 C261.841433,14.3896185 261.087109,14.9670182 260.332773,15.5315953 C259.578438,16.0961724 258.902147,16.7505587 258.303881,17.494774 C258.199835,17.5460992 258.134807,17.5653458 258.108795,17.5525145 C258.082783,17.5396832 258.00475,17.5589299 257.874692,17.6102551 C257.666599,18.0978444 257.41299,18.5405175 257.113857,18.9382877 C256.814724,19.3360579 256.522099,19.7402377 256.235971,20.1508392 C255.949844,20.5614408 255.702738,20.9976983 255.494645,21.459625 C255.286553,21.9215517 255.169502,22.4604581 255.143491,23.0763604 C255.585687,23.4356367 256.105911,23.6537655 256.704177,23.7307533 C257.302443,23.8077411 257.920209,23.8205722 258.557492,23.769247 C259.194776,23.7179218 259.819044,23.6345196 260.430316,23.5190379 C261.041588,23.4035563 261.607331,23.3458163 262.127563,23.3458163 C263.220049,23.0891903 264.156451,22.7491661 264.936798,22.3257333 C265.717146,21.9023004 266.536498,21.4724584 267.39488,21.0361943 Z M282.65059,21.9215494 C282.416486,21.9728746 282.247413,22.1076012 282.143367,22.3257333 C282.039321,22.5438653 281.941779,22.7684096 281.850738,22.999373 C281.759698,23.2303363 281.668659,23.4420496 281.577618,23.634519 C281.486578,23.8269885 281.350019,23.9232218 281.167938,23.9232218 C281.141927,24.1285225 281.070396,24.308158 280.953344,24.4621336 C280.836292,24.6161091 280.725744,24.776498 280.621698,24.9433048 C280.517652,25.1101117 280.439618,25.2897472 280.387595,25.4822166 C280.335572,25.6746861 280.361583,25.8992304 280.465629,26.1558564 C280.257537,26.3098319 280.127481,26.5279607 280.075458,26.8102492 C280.023434,27.0925378 279.964909,27.361991 279.89988,27.6186169 C279.834851,27.8752429 279.724304,28.0933717 279.568234,28.2730098 C279.412165,28.452648 279.126042,28.5296346 278.709857,28.503972 C278.631822,28.6066224 278.618817,28.6707779 278.67084,28.6964405 C278.722863,28.7221031 278.76188,28.8119208 278.787891,28.9658964 C278.501764,28.9145712 278.287172,28.9338179 278.144108,29.023637 C278.001044,29.113456 277.825469,29.171196 277.617376,29.1968586 C277.123156,29.042883 276.71348,28.7734298 276.388336,28.3884909 C276.063191,28.003552 275.777068,27.57371 275.529958,27.098952 C275.282848,26.624194 275.061753,26.1430276 274.866666,25.6554383 C274.67158,25.167849 274.482999,24.7444225 274.300918,24.3851462 C274.378952,24.1028576 274.391958,23.8269889 274.339935,23.5575316 C274.287912,23.2880744 274.196872,23.0635301 274.066815,22.8838919 C275.341382,20.2149821 276.73298,17.3664768 278.241651,14.3382906 C279.750322,11.3101045 281.180937,8.32045703 282.533539,5.36925865 C283.131805,5.600222 283.723559,5.86325965 284.30882,6.15837949 C284.89408,6.45349933 285.427309,6.79352361 285.908523,7.17846253 C286.389737,7.56340144 286.799414,8.00607456 287.137564,8.50649516 C287.475714,9.00691575 287.696809,9.56506881 287.800856,10.1809711 C287.748833,10.3349466 287.690307,10.3926866 287.625279,10.3541927 C287.56025,10.3156988 287.501724,10.3349455 287.449701,10.4119333 C287.553748,10.5402463 287.612273,10.630064 287.625279,10.6813892 C287.638284,10.7327144 287.638284,10.7840388 287.625279,10.835364 C287.612273,10.8866892 287.60577,10.9572602 287.60577,11.0470793 C287.60577,11.1368984 287.644787,11.2587939 287.722821,11.4127695 C287.618775,11.3871069 287.547244,11.399938 287.508227,11.4512632 C287.46921,11.5025884 287.384673,11.5025884 287.254615,11.4512632 C287.358662,11.7335517 287.391176,11.9645116 287.352158,12.1441498 C287.313141,12.3237879 287.254616,12.4841767 287.176581,12.625321 C287.098546,12.7664653 287.033518,12.9204385 286.981495,13.0872454 C286.929472,13.2540523 286.942478,13.4657655 287.020513,13.7223914 C286.942478,13.7223914 286.883953,13.7416381 286.844935,13.780132 C286.805918,13.8186259 286.773404,13.8571192 286.747392,13.8956131 C286.721381,13.934107 286.688867,13.9726003 286.649849,14.0110942 C286.610832,14.0495881 286.552307,14.0560036 286.474272,14.030341 C286.552307,14.5949181 286.578318,15.1594867 286.552307,15.7240638 C286.526295,16.2886409 286.506787,16.859625 286.493781,17.4370334 C286.480775,18.0144418 286.487278,18.6175037 286.513289,19.2462373 C286.539301,19.8749709 286.63034,20.5229417 286.78641,21.1901691 C287.722826,20.6512546 288.470648,19.958375 289.029896,19.1115094 C289.589145,18.2646437 290.044341,17.315142 290.395497,16.2629756 C290.746653,15.2108092 291.013268,14.081672 291.195349,12.87553 C291.37743,11.6693881 291.572514,10.437602 291.780606,9.1801349 C292.01471,8.94917154 292.196789,8.66688724 292.326847,8.33327351 C292.456904,7.99965978 292.573955,7.6468044 292.678001,7.27469677 L292.990138,6.15837949 C293.094185,5.78627187 293.224241,5.44624759 293.38031,5.13829645 C293.770484,5.18962164 294.102126,5.31151714 294.375248,5.5039866 C294.648369,5.69645606 294.901978,5.90175374 295.136082,6.11988579 C295.370186,6.33801784 295.617293,6.54331552 295.877408,6.73578498 C296.137524,6.92825444 296.462664,7.05014994 296.852837,7.10147513 C297.164976,7.53773923 297.451099,7.96116569 297.711215,8.37176721 C297.971331,8.78236872 298.140403,9.21862629 298.218438,9.68055299 C298.08838,9.88585375 297.990838,10.1168136 297.925809,10.3734396 C297.860781,10.6300655 297.78925,10.8866876 297.711215,11.1433136 C297.63318,11.3999395 297.529136,11.637315 297.399078,11.855447 C297.26902,12.0735791 297.086942,12.2596301 296.852837,12.4136056 C296.774803,13.0808331 296.677261,13.6903106 296.560209,14.2420564 C296.443157,14.7938022 296.326106,15.3391241 296.209054,15.8780386 C296.092002,16.4169531 295.99446,16.9751061 295.916426,17.5525145 C295.838391,18.1299229 295.81238,18.7650626 295.838391,19.4579526 C295.630299,20.0481923 295.409204,20.6769165 295.1751,21.3441439 C294.940995,22.0113714 294.758917,22.6144333 294.628859,23.1533478 C294.212674,23.4869615 293.887534,23.8847258 293.65343,24.3466525 C293.419326,24.8085792 293.17222,25.270499 292.912104,25.7324257 C292.808058,25.835076 292.74303,25.8607382 292.717018,25.8094131 C292.691007,25.7580879 292.599968,25.7195946 292.443898,25.693932 C292.46991,25.7965823 292.46991,25.873569 292.443898,25.9248942 C292.417887,25.9762193 292.385373,26.0211282 292.346355,26.0596221 C292.307338,26.098116 292.281327,26.155856 292.268321,26.2328438 C292.255315,26.3098315 292.274823,26.4124804 292.326847,26.5407933 C291.962685,26.6947689 291.637545,26.9128977 291.351418,27.1951862 C291.06529,27.4774748 290.759659,27.7340969 290.434514,27.9650602 C290.10937,28.1960236 289.719202,28.3499968 289.263999,28.4269846 C288.808797,28.5039724 288.217042,28.4141547 287.488718,28.1575287 C286.422244,27.3876509 285.479339,26.5023047 284.659974,25.5014635 C283.84061,24.5006223 283.170822,23.3073295 282.65059,21.9215494 Z M316.439453,18.5341039 C316.413442,18.6624168 316.38743,18.7714812 316.361419,18.8613003 C316.335407,18.9511194 316.309396,19.0345216 316.283384,19.1115094 C316.257373,19.1884971 316.244367,19.2847304 316.244367,19.4002121 L316.244367,19.8428896 C315.46402,21.2030072 314.482098,22.3449755 313.298572,23.2688289 C312.115045,24.1926823 310.814486,25.0074575 309.396855,25.7131788 C307.979225,26.4189002 306.50309,27.0604554 304.968407,27.6378638 C303.433725,28.2152722 301.938082,28.8375807 300.481434,29.5048082 C299.857156,29.3508326 299.382452,29.0942105 299.057307,28.7349342 C298.732163,28.3756579 298.485056,27.958647 298.315981,27.483889 C298.146906,27.009131 298.029856,26.4830557 297.964827,25.9056473 C297.899798,25.3282389 297.841273,24.7315926 297.789249,24.1156903 C297.867284,23.8334017 297.977832,23.5960263 298.120895,23.4035568 C298.263959,23.2110874 298.33549,22.9352186 298.33549,22.5759423 C298.543582,21.9087148 298.751672,21.2543285 298.959764,20.6127636 C299.167857,19.9711988 299.297913,19.3168124 299.349936,18.649585 C299.427971,18.4442842 299.571032,18.303142 299.779125,18.2261543 C299.909183,16.9943497 299.915685,15.743317 299.798633,14.4730186 C299.681581,13.2027201 299.466989,12.0158429 299.15485,10.9123514 C299.180862,10.6557254 299.213376,10.4696744 299.252393,10.3541927 C299.29141,10.2387111 299.284908,10.1553089 299.232884,10.1039837 C299.206873,9.89868293 299.278404,9.79603409 299.447479,9.79603409 L299.974211,9.79603409 C299.974211,9.41109517 299.90268,9.02616202 299.759616,8.6412231 C299.616552,8.25628419 299.479994,7.82002662 299.349936,7.33243732 C299.532017,6.9474984 299.649067,6.56898081 299.70109,6.19687319 C299.753114,5.82476557 299.870164,5.49757239 300.052245,5.21528385 C301.45687,5.65154796 302.802948,6.17762326 304.090521,6.79352553 C305.378094,7.4094278 306.646139,7.85851647 307.894695,8.14080501 C308.831111,8.80803247 309.793525,9.46883437 310.781965,10.1232305 C311.770404,10.7776267 312.66779,11.4961686 313.474149,12.2788777 C314.280507,13.0615868 314.956798,13.9533486 315.503041,14.9541898 C316.049284,15.955031 316.361418,17.1483238 316.439453,18.5341039 Z M307.192386,20.6512573 C307.738629,20.4459566 308.278361,20.2278278 308.811598,19.9968644 C309.344835,19.7659011 309.839048,19.5028634 310.29425,19.2077436 C310.749453,18.9126238 311.159129,18.5725995 311.523291,18.1876606 C311.887453,17.8027216 312.186581,17.3408019 312.420685,16.8018874 C312.264616,16.4939363 312.056526,16.2180675 311.796411,15.9742728 C311.536295,15.7304782 311.276183,15.4995183 311.016068,15.2813863 C310.755952,15.0632542 310.502343,14.8387099 310.255233,14.6077465 C310.008123,14.3767832 309.806536,14.0944989 309.650467,13.7608851 C309.312316,13.7095599 309.013188,13.6133267 308.753072,13.4721824 C308.492956,13.3310381 308.239347,13.189896 307.992237,13.0487517 C307.745127,12.9076074 307.485016,12.7728808 307.211894,12.6445678 C306.938773,12.5162549 306.620136,12.4392682 306.255974,12.4136056 C305.683719,12.1313171 305.169998,11.9260194 304.714796,11.7977065 C304.259593,11.6693935 303.914945,11.5025891 303.680841,11.2972884 C303.49876,11.2972884 303.355698,11.3357817 303.251652,11.4127695 C303.511768,12.3879481 303.706852,13.3053721 303.83691,14.165069 C303.966967,15.0247659 304.038498,15.8844499 304.051504,16.7441468 C304.06451,17.6038438 304.01899,18.4827744 303.914944,19.3809652 C303.810898,20.2791561 303.667836,21.25432 303.485755,22.3064864 C303.745871,22.2808238 303.986474,22.2230838 304.207573,22.1332648 C304.428671,22.0434457 304.649766,21.9472124 304.870864,21.844562 C305.091963,21.7419116 305.326063,21.6456783 305.573173,21.5558593 C305.820283,21.4660402 306.112909,21.4083002 306.451059,21.3826376 C306.529094,21.2286621 306.639642,21.100351 306.782705,20.9977006 C306.925769,20.8950502 307.062328,20.7795703 307.192386,20.6512573 Z" id="SmartVagabond" fill="#0099FF" fill-rule="nonzero"></path></g></svg> 